<?xml version="1.0" standalone="no"?><!-- Generator: Gravit.io --><svg xmlns="http://www.w3.org/2000/svg" xmlns:xlink="http://www.w3.org/1999/xlink" style="isolation:isolate" viewBox="0 0 192 192"><g style="isolation:isolate"><rect rx="8" ry="8" x="0" y="0" width="192" height="192" transform="matrix(1,0,0,1,0,0)" fill="rgb(255,255,255)" stroke-width="0" stroke="rgb(0,0,0)"/><g style="isolation:isolate"><defs><filter id="prw10F5FX9hOkEnoCGW36HpK8R2HdNHa" x="-200%" y="-200%" width="400%" height="400%"><feOffset xmlns="http://www.w3.org/2000/svg" in="SourceAlpha" result="offOut" dx="1" dy="1"/><feGaussianBlur xmlns="http://www.w3.org/2000/svg" in="offOut" result="blurOut" stdDeviation="0.5"/><feComponentTransfer xmlns="http://www.w3.org/2000/svg" in="blurOut" result="opacOut"><feFuncA xmlns="http://www.w3.org/2000/svg" type="table" tableValues="0 0.5"/></feComponentTransfer><feBlend xmlns="http://www.w3.org/2000/svg" in="SourceGraphic" in2="opacOut" mode="normal"/></filter></defs><g filter="url(#prw10F5FX9hOkEnoCGW36HpK8R2HdNHa)"><path d=" M 139.12459823805 30.89799840143 L 139.12459823805 30.89799840143 L 134.9711431703 28.5 L 96 6 L 80.21530151687 15.11329991831 L 115.16430071759 24.47785603042 L 139.12459823805 30.89799840143 Z  M 158.15758785747 41.88670008169 L 158.15758785747 41.88670008169 L 173.9422863406 51 L 173.9422863406 96 L 173.9422863406 100.79599680287 L 167.52214396958 76.83569928241 L 158.15758785747 41.88670008169 Z  M 173.9422863406 122.77340016338 L 173.9422863406 122.77340016338 L 173.9422863406 141 L 134.9711431703 163.5 L 130.81768810255 165.89799840143 L 148.35784325199 148.35784325199 L 173.9422863406 122.77340016338 Z  M 111.78469848313 176.88670008169 L 111.78469848313 176.88670008169 L 96 186 L 57.0288568297 163.5 L 52.87540176195 161.10200159857 L 76.83569928241 167.52214396958 L 111.78469848313 176.88670008169 Z  M 33.84241214253 150.11329991831 L 33.84241214253 150.11329991831 L 18.0577136594 141 L 18.0577136594 96 L 18.0577136594 91.20400319713 L 24.47785603042 115.16430071759 L 33.84241214253 150.11329991831 Z  M 18.0577136594 69.22659983662 L 18.0577136594 69.22659983662 L 18.0577136594 51 L 57.0288568297 28.5 L 61.18231189745 26.10200159857 L 43.64215674801 43.64215674801 L 18.0577136594 69.22659983662 Z " fill-rule="evenodd" fill="rgb(38,198,218)" stroke-width="0" stroke="rgb(38,198,218)"/></g><defs><filter id="ycEr9ocTjEUZZ8V9Cym3k3v7qdRecUMX" x="-200%" y="-200%" width="400%" height="400%"><feOffset xmlns="http://www.w3.org/2000/svg" in="SourceAlpha" result="offOut" dx="1" dy="1"/><feGaussianBlur xmlns="http://www.w3.org/2000/svg" in="offOut" result="blurOut" stdDeviation="0.5"/><feComponentTransfer xmlns="http://www.w3.org/2000/svg" in="blurOut" result="opacOut"><feFuncA xmlns="http://www.w3.org/2000/svg" type="table" tableValues="0 0.5"/></feComponentTransfer><feBlend xmlns="http://www.w3.org/2000/svg" in="SourceGraphic" in2="opacOut" mode="normal"/></filter></defs><g filter="url(#ycEr9ocTjEUZZ8V9Cym3k3v7qdRecUMX)"><path d=" M 49.1961591404182 54.622210119384775 L 49.1961591404182 54.622210119384775 L 51.90918462990257 51.90918462990284 L 77.36502875261849 26.453340507187075 L 91.4494635587233 30.227253439330095 L 66.38193119057435 44.70000000000154 L 49.1961591404182 54.622210119384775 Z  M 36.76386238114766 67.05450687865974 L 36.76386238114766 67.05450687865974 L 26.453340507186653 77.3650287526186 L 35.770826130877396 112.13835849902506 L 36.763862381144236 115.84442023877861 L 36.76386238114681 96.00000000000114 L 36.76386238114766 67.05450687865974 Z  M 41.31439882242435 132.82725343932964 L 41.31439882242435 132.82725343932964 L 45.08831175456814 146.91168824543152 L 79.8616415009748 156.22917386912223 L 83.56770324072394 157.22221011938612 L 66.3819311905724 147.29999999999959 L 41.31439882242435 132.82725343932964 Z  M 100.55053644127663 161.77274656066993 L 100.55053644127663 161.77274656066993 L 114.63497124738146 165.54665949281292 L 140.09081537009737 140.09081537009715 L 142.80384085958175 137.37778988061524 L 125.61806880942558 147.29999999999845 L 100.55053644127663 161.77274656066993 Z  M 155.23613761885227 124.94549312134026 L 155.23613761885227 124.94549312134026 L 165.5466594928133 114.63497124738139 L 156.22917386912255 79.86164150097493 L 155.2361376188557 76.15557976122139 L 155.23613761885315 95.99999999999888 L 155.23613761885227 124.94549312134026 Z  M 150.6856011775756 59.17274656067036 L 150.6856011775756 59.17274656067036 L 146.9116882454318 45.088311754568466 L 112.13835849902514 35.770826130877765 L 108.432296759276 34.77778988061388 L 125.61806880942753 44.70000000000043 L 150.6856011775756 59.17274656067036 Z " fill-rule="evenodd" fill="rgb(38,198,218)" stroke-width="2" stroke="rgb(38,198,218)"/></g><defs><filter id="lsZ4Pq8QSaX5VixvUomdIVvnsDj6CBWU" x="-200%" y="-200%" width="400%" height="400%"><feOffset xmlns="http://www.w3.org/2000/svg" in="SourceAlpha" result="offOut" dx="1" dy="1"/><feGaussianBlur xmlns="http://www.w3.org/2000/svg" in="offOut" result="blurOut" stdDeviation="0.5"/><feComponentTransfer xmlns="http://www.w3.org/2000/svg" in="blurOut" result="opacOut"><feFuncA xmlns="http://www.w3.org/2000/svg" type="table" tableValues="0 0.5"/></feComponentTransfer><feBlend xmlns="http://www.w3.org/2000/svg" in="SourceGraphic" in2="opacOut" mode="normal"/></filter></defs><g filter="url(#lsZ4Pq8QSaX5VixvUomdIVvnsDj6CBWU)"><path d=" M 125.56978173086482 58.853806837985296 L 125.56978173086482 58.853806837985296 L 123.18116217489876 57.181277418984315 L 100.76916224315178 41.48822612041968 L 90.72566535036668 46.17158563618004 L 111.39756373162811 53.6955413327356 L 125.56978173086482 58.853806837985296 Z  M 136.5155053445478 66.51808502344903 L 136.5155053445478 66.51808502344903 L 145.5931621066457 72.87432871754895 L 143.2085809850698 100.13021565733911 L 142.9544377976195 103.0350855822862 L 140.33551776501406 88.18245201434941 L 136.5155053445478 66.51808502344903 Z  M 141.78983999418105 116.34649938726898 L 141.78983999418105 116.34649938726898 L 140.82399986349387 127.38610259712925 L 116.02741881017099 138.9489382383548 L 113.38465606675516 140.18127874429484 L 124.93795403338589 130.4869106816138 L 141.78983999418105 116.34649938726898 Z  M 101.27433464963318 145.82841436381995 L 101.27433464963318 145.82841436381995 L 91.23083775684808 150.5117738795803 L 68.8188378251011 134.81872258101566 L 66.43021826913503 133.1461931620147 L 80.60243626837175 138.30445866726438 L 101.27433464963318 145.82841436381995 Z  M 55.48449465545207 125.48191497655095 L 55.48449465545207 125.48191497655095 L 46.40683789335413 119.12567128245104 L 48.79141901493006 91.86978434266089 L 49.04556220238033 88.96491441771379 L 51.6644822349858 103.81754798565058 L 55.48449465545207 125.48191497655095 Z  M 50.21016000581881 75.653500612731 L 50.21016000581881 75.653500612731 L 51.176000136505984 64.61389740287073 L 75.97258118982889 53.0510617616452 L 78.6153439332447 51.818721255705135 L 67.062045966614 61.51308931838619 L 50.21016000581881 75.653500612731 Z " fill-rule="evenodd" fill="rgb(38,198,218)" stroke-width="2" stroke="rgb(38,198,218)"/></g></g><g style="isolation:isolate"><rect x="0" y="0" width="191.99999999999994" height="191.99999999999994" transform="matrix(1,0,0,1,0,0)" fill="none" stroke="none"/><mask id="_mask_lLY8EjLpMmGqomBAt6iUsOExvzstMjn6"><rect x="0" y="0" width="191.99999999999994" height="191.99999999999994" transform="matrix(1,0,0,1,0,0)" fill="white" stroke="none"/></mask><rect x="0" y="0" width="191.99999999999994" height="191.99999999999994" transform="matrix(1,0,0,1,0,0)" fill="none" stroke="none" stroke-width="0" mask="url(#_mask_lLY8EjLpMmGqomBAt6iUsOExvzstMjn6)"/></g></g></svg>