<?xml version="1.0" standalone="no"?><!-- Generator: Gravit.io --><svg xmlns="http://www.w3.org/2000/svg" xmlns:xlink="http://www.w3.org/1999/xlink" style="isolation:isolate" viewBox="18.057713659400008 6 157.88457268119998 182"><g style="isolation:isolate"><defs><filter id="dVD36JMN9OYUtIj8aJ1uX7tVd0NuL3tU" x="-200%" y="-200%" width="400%" height="400%"><feOffset xmlns="http://www.w3.org/2000/svg" in="SourceAlpha" result="offOut" dx="1" dy="1"/><feGaussianBlur xmlns="http://www.w3.org/2000/svg" in="offOut" result="blurOut" stdDeviation="0.5"/><feComponentTransfer xmlns="http://www.w3.org/2000/svg" in="blurOut" result="opacOut"><feFuncA xmlns="http://www.w3.org/2000/svg" type="table" tableValues="0 0.5"/></feComponentTransfer><feBlend xmlns="http://www.w3.org/2000/svg" in="SourceGraphic" in2="opacOut" mode="normal"/></filter></defs><g filter="url(#dVD36JMN9OYUtIj8aJ1uX7tVd0NuL3tU)"><path d=" M 52.87540176195 30.89799840143 L 52.87540176195 30.89799840143 L 57.028856829700004 28.5 L 96 6 L 111.78469848313 15.11329991831 L 76.83569928241 24.47785603042 L 52.87540176195 30.89799840143 Z  M 33.84241214253001 41.88670008169 L 33.84241214253001 41.88670008169 L 18.057713659400008 51 L 18.057713659400008 96 L 18.057713659400008 100.79599680287 L 24.477856030420014 76.83569928241 L 33.84241214253001 41.88670008169 Z  M 18.057713659400008 122.77340016338 L 18.057713659400008 122.77340016338 L 18.057713659400008 141 L 57.028856829700004 163.5 L 61.182311897450006 165.89799840143 L 43.642156748009995 148.35784325199 L 18.057713659400008 122.77340016338 Z  M 80.21530151687 176.88670008169 L 80.21530151687 176.88670008169 L 96 186 L 134.9711431703 163.5 L 139.12459823805 161.10200159857 L 115.16430071759 167.52214396958 L 80.21530151687 176.88670008169 Z  M 158.15758785747 150.11329991831 L 158.15758785747 150.11329991831 L 173.9422863406 141 L 173.9422863406 96 L 173.9422863406 91.20400319713 L 167.52214396958 115.16430071759 L 158.15758785747 150.11329991831 Z  M 173.9422863406 69.22659983662 L 173.9422863406 69.22659983662 L 173.9422863406 51 L 134.9711431703 28.5 L 130.81768810255 26.10200159857 L 148.35784325199 43.64215674801 L 173.9422863406 69.22659983662 Z " fill-rule="evenodd" fill="rgb(38,198,218)" stroke-width="0" stroke="rgb(38,198,218)"/></g><defs><filter id="OmbjNZr5aKuQoHaOacpIdYr6OCqwIfAa" x="-200%" y="-200%" width="400%" height="400%"><feOffset xmlns="http://www.w3.org/2000/svg" in="SourceAlpha" result="offOut" dx="1" dy="1"/><feGaussianBlur xmlns="http://www.w3.org/2000/svg" in="offOut" result="blurOut" stdDeviation="0.5"/><feComponentTransfer xmlns="http://www.w3.org/2000/svg" in="blurOut" result="opacOut"><feFuncA xmlns="http://www.w3.org/2000/svg" type="table" tableValues="0 0.5"/></feComponentTransfer><feBlend xmlns="http://www.w3.org/2000/svg" in="SourceGraphic" in2="opacOut" mode="normal"/></filter></defs><g filter="url(#OmbjNZr5aKuQoHaOacpIdYr6OCqwIfAa)"><path d=" M 76.15557976122568 36.76386238114166 L 76.15557976122568 36.76386238114166 L 79.86164150097483 35.77082613087777 L 114.63497124738149 26.45334050718708 L 124.9454931213425 36.76386238114596 L 96.0000000000011 36.763862381146815 L 76.15557976122568 36.76386238114166 Z  M 59.17274656067296 41.31439882242545 L 59.17274656067296 41.31439882242545 L 45.08831175456817 45.08831175456847 L 35.77082613087741 79.86164150097494 L 34.77778988061056 83.56770324072846 L 44.70000000000152 66.38193119057442 L 59.17274656067296 41.31439882242545 Z  M 30.227253439330468 100.55053644127952 L 30.227253439330468 100.55053644127952 L 26.453340507186667 114.6349712473814 L 51.90918462990257 140.09081537009718 L 54.62221011938695 142.8038408595791 L 44.7000000000004 125.61806880942757 L 30.227253439330468 100.55053644127952 Z  M 67.05450687865745 155.23613761885406 L 67.05450687865745 155.23613761885406 L 77.36502875261849 165.54665949281292 L 112.13835849902516 156.2291738691222 L 115.8444202387743 155.23613761885835 L 95.99999999999888 155.23613761885318 L 67.05450687865745 155.23613761885406 Z  M 132.827253439327 150.68560117757454 L 132.827253439327 150.68560117757454 L 146.9116882454318 146.91168824543152 L 156.22917386912258 112.13835849902509 L 157.22221011938942 108.43229675927154 L 147.29999999999845 125.61806880942564 L 132.827253439327 150.68560117757454 Z  M 161.7727465606695 91.44946355872051 L 161.7727465606695 91.44946355872051 L 165.54665949281332 77.3650287526186 L 140.0908153700974 51.909184629902846 L 137.37778988061302 49.19615914042091 L 147.29999999999956 66.38193119057246 L 161.7727465606695 91.44946355872051 Z " fill-rule="evenodd" fill="rgb(38,198,218)" stroke-width="2" stroke="rgb(38,198,218)"/></g><defs><filter id="XiyNqz5LBUsn8A1CoAeY1GBkUy3vy0wk" x="-200%" y="-200%" width="400%" height="400%"><feOffset xmlns="http://www.w3.org/2000/svg" in="SourceAlpha" result="offOut" dx="1" dy="1"/><feGaussianBlur xmlns="http://www.w3.org/2000/svg" in="offOut" result="blurOut" stdDeviation="0.5"/><feComponentTransfer xmlns="http://www.w3.org/2000/svg" in="blurOut" result="opacOut"><feFuncA xmlns="http://www.w3.org/2000/svg" type="table" tableValues="0 0.5"/></feComponentTransfer><feBlend xmlns="http://www.w3.org/2000/svg" in="SourceGraphic" in2="opacOut" mode="normal"/></filter></defs><g filter="url(#XiyNqz5LBUsn8A1CoAeY1GBkUy3vy0wk)"><path d=" M 93.08403394385866 48.61108990491414 L 93.08403394385866 48.61108990491414 L 95.9999999999998 48.61108990491544 L 123.35999999999993 48.611089904915524 L 128.90088635033442 58.2081865826574 L 107.6518948362963 52.514536466495805 L 93.08403394385866 48.61108990491414 Z  M 79.7217727006666 48.611089904916504 L 79.7217727006666 48.611089904916504 L 68.63999999999967 48.611089904915374 L 54.95999999999967 72.30554495245761 L 53.50201697192719 74.83084563365226 L 64.16643130279044 64.16643130279172 L 79.7217727006666 48.611089904916504 Z  M 46.82088635033213 86.40290332225909 L 46.82088635033213 86.40290332225909 L 41.27999999999966 95.99999999999984 L 54.95999999999978 119.69445504754216 L 56.41798302807152 122.21975572873284 L 52.514536466494064 107.65189483629591 L 46.82088635033213 86.40290332225909 Z  M 63.09911364966547 133.7918134173426 L 63.09911364966547 133.7918134173426 L 68.63999999999996 143.38891009508447 L 96.00000000000009 143.38891009508455 L 98.91596605614123 143.38891009508586 L 84.34810516370354 139.4854635335042 L 63.09911364966547 133.7918134173426 Z  M 112.27822729933325 143.38891009508347 L 112.27822729933325 143.38891009508347 L 123.3600000000002 143.38891009508464 L 137.0400000000002 119.6944550475424 L 138.49798302807267 117.16915436634774 L 127.83356869720942 127.83356869720825 L 112.27822729933325 143.38891009508347 Z  M 145.17911364966773 105.5970966777409 L 145.17911364966773 105.5970966777409 L 150.7200000000002 96.00000000000016 L 137.04000000000008 72.30554495245784 L 135.58201697192834 69.78024427126715 L 139.48546353350577 84.34810516370408 L 145.17911364966773 105.5970966777409 Z " fill-rule="evenodd" fill="rgb(38,198,218)" stroke-width="2" stroke="rgb(38,198,218)"/></g></g></svg>