<?xml version="1.0" standalone="no"?><!-- Generator: Gravit.io --><svg xmlns="http://www.w3.org/2000/svg" xmlns:xlink="http://www.w3.org/1999/xlink" style="isolation:isolate" width="320" height="132"><g style="isolation:isolate"><g style="isolation:isolate"><path d=" M 35.220947948688305 26.828467775871413 L 35.220947948688305 26.828467775871413 L 37.75195963059846 25.367187500000007 L 61.500000000000036 11.656250000000002 L 71.11880063815738 17.20966713772016 L 49.82175425021863 22.91619351853719 L 35.220947948688305 26.828467775871413 Z  M 23.62271989935425 33.524707862279854 L 23.62271989935425 33.524707862279854 L 14.003919261196899 39.078125000000014 L 14.003919261196899 66.50000000000003 L 14.003919261196899 69.42256055174892 L 17.916193518537213 54.82175425021861 L 23.62271989935425 33.524707862279854 Z  M 14.003919261196899 82.81504072455972 L 14.003919261196899 82.81504072455972 L 14.003919261196899 93.92187500000003 L 37.75195963059846 107.63281250000004 L 40.28297131250862 109.09409277587143 L 29.59443926831861 98.40556073168145 L 14.003919261196899 82.81504072455972 Z  M 51.88119936184269 115.79033286227988 L 51.88119936184269 115.79033286227988 L 61.500000000000036 121.34375000000004 L 85.24804036940161 107.63281250000004 L 87.77905205131177 106.17153222412864 L 73.17824574978144 110.08380648146284 L 51.88119936184269 115.79033286227988 Z  M 99.37728010064583 99.47529213772019 L 99.37728010064583 99.47529213772019 L 108.99608073880317 93.92187500000003 L 108.99608073880317 66.50000000000003 L 108.99608073880317 63.57743944825112 L 105.08380648146286 78.17824574978142 L 99.37728010064583 99.47529213772019 Z  M 108.99608073880317 50.18495927544033 L 108.99608073880317 50.18495927544033 L 108.99608073880317 39.078125000000014 L 85.24804036940161 25.367187500000007 L 82.71702868749145 23.905907224128597 L 93.40556073168145 34.59443926831861 L 108.99608073880317 50.18495927544033 Z " fill-rule="evenodd" fill="rgb(44,62,80)" stroke-width="0" stroke="rgb(44,62,80)"/><path d=" M 49.40730641699692 30.402978638508202 L 49.40730641699692 30.402978638508202 L 51.66568778965655 29.797847173503648 L 72.85568560387311 24.120004371567127 L 79.1386598708181 30.402978638510824 L 61.50000000000069 30.40297863851135 L 49.40730641699692 30.402978638508202 Z  M 39.0583924354101 33.17596178241551 L 39.0583924354101 33.17596178241551 L 30.475689975439987 35.47568997544016 L 24.797847173503435 56.66568778965661 L 24.192715708497076 58.92406916231892 L 30.23906250000094 48.45148931925629 L 39.0583924354101 33.17596178241551 Z  M 21.419732564592017 69.2729831439047 L 21.419732564592017 69.2729831439047 L 19.120004371566882 77.85568560387304 L 34.6321593838469 93.36784061615296 L 36.28540929150143 95.02109052380604 L 30.23906250000026 84.54851068074493 L 21.419732564592017 69.2729831439047 Z  M 43.8613401291819 102.5970213614892 L 43.8613401291819 102.5970213614892 L 50.1443143961269 108.87999562843288 L 71.33431221034348 103.20215282649636 L 73.59269358300311 102.59702136149184 L 61.499999999999325 102.59702136148866 L 43.8613401291819 102.5970213614892 Z  M 83.94160756458992 99.8240382175845 L 83.94160756458992 99.8240382175845 L 92.52431002456004 97.52431002455984 L 98.20215282649659 76.3343122103434 L 98.80728429150294 74.07593083768108 L 92.76093749999907 84.54851068074373 L 83.94160756458992 99.8240382175845 Z  M 101.580267435408 63.72701685609531 L 101.580267435408 63.72701685609531 L 103.87999562843314 55.144314396126966 L 88.36784061615313 39.632159383847046 L 86.71459070849859 37.97890947619399 L 92.76093749999976 48.45148931925508 L 101.580267435408 63.72701685609531 Z " fill-rule="evenodd" fill="rgb(44,62,80)" stroke-width="2" stroke="rgb(44,62,80)"/><path d=" M 59.72308318453889 37.622382910807076 L 59.72308318453889 37.622382910807076 L 61.499999999999886 37.62238291080786 L 78.17249999999997 37.622382910807914 L 81.54897761973504 43.47061369880687 L 68.60037341586808 40.0010456592709 L 59.72308318453889 37.622382910807076 Z  M 51.58045523946873 37.62238291080852 L 51.58045523946873 37.62238291080852 L 44.827499999999816 37.62238291080783 L 36.49124999999981 52.06119145540388 L 35.60279159226815 53.60004655800687 L 42.10141907513794 47.101419075138736 L 51.58045523946873 37.62238291080852 Z  M 31.531477619733664 60.65176921200166 L 31.531477619733664 60.65176921200166 L 28.154999999999802 66.49999999999993 L 36.491249999999866 80.93880854459604 L 37.37970840773109 82.47766364719661 L 35.001045659269835 73.60037341586785 L 31.531477619733664 60.65176921200166 Z  M 41.4510223802649 89.52938630119317 L 41.4510223802649 89.52938630119317 L 44.827499999999986 95.37761708919213 L 61.50000000000006 95.37761708919219 L 63.27691681546108 95.37761708919298 L 54.39962658413188 92.99895434072914 L 41.4510223802649 89.52938630119317 Z  M 71.41954476053122 95.37761708919153 L 71.41954476053122 95.37761708919153 L 78.17250000000014 95.37761708919223 L 86.50875000000013 80.93880854459618 L 87.39720840773181 79.39995344199319 L 80.898580924862 85.8985809248613 L 71.41954476053122 95.37761708919153 Z  M 91.4685223802663 72.34823078799838 L 91.4685223802663 72.34823078799838 L 94.84500000000014 66.50000000000011 L 86.50875000000005 52.061191455404014 L 85.62029159226887 50.522336352803435 L 87.9989543407301 59.39962658413219 L 91.4685223802663 72.34823078799838 Z " fill-rule="evenodd" fill="rgb(44,62,80)" stroke-width="2" stroke="rgb(44,62,80)"/></g><g style="isolation:isolate"><rect x="3" y="8" width="117" height="117" transform="matrix(1,0,0,1,0,0)" fill="none" stroke="none"/><mask id="_mask_GcBJDqVJNCsP2nfgJEcjpqz1m30G2MC8"><rect x="3" y="8" width="117" height="117" transform="matrix(1,0,0,1,0,0)" fill="white" stroke="none"/></mask><rect x="3" y="8" width="117" height="117" transform="matrix(1,0,0,1,0,0)" fill="none" stroke="none" stroke-width="0" mask="url(#_mask_GcBJDqVJNCsP2nfgJEcjpqz1m30G2MC8)"/></g></g><g style="isolation:isolate"><path d=" M 280.5115183720369 33 L 286.9095716507254 33.09272540983606 L 286.8168462408894 93.45696721311477 L 280.4187929622008 93.3642418032787 L 280.5115183720369 33 Z  M 296.6457396835123 33 L 303.0437929622008 33.09272540983606 L 302.95106755236475 93.45696721311477 L 296.55301427367624 93.3642418032787 L 296.6457396835123 33 Z  M 122.13651837203685 37.63627049180328 L 129.64727656875817 37.728995901639344 L 129.74000197859422 86.78073770491804 L 157.8358011589221 86.8734631147541 L 157.74307574908605 93.45696721311477 L 122.04379296220078 93.3642418032787 L 122.13651837203685 37.63627049180328 Z  M 198.17135443761066 61.00307377049181 L 203.36397738843033 61.00307377049181 Q 205.0330347654795 60.53944672131148 205.49666181465983 61.28125 Q 211.68764523458876 72.2444673997432 216.16008394580737 84.92622950819673 Q 220.9904515278572 72.23149463123018 227.28713312613525 61.00307377049181 L 234.24153886384016 61.09579918032787 L 217.7364159130205 95.58965163934427 L 211.15291181465983 109.03483606557378 L 204.56940771629917 108.94211065573771 Q 209.01279505545847 100.31121520801179 212.72924378187292 90.953381147541 Q 204.65594521313812 76.6676666900309 198.17135443761066 61.00307377049181 Z  M 177.21541181465983 60.075819672131146 C 183.83315598503984 59.96916795249999 189.83835023819032 61.89709176416781 193.6451352024406 67.55766134582579 C 198.80990404676646 75.23751027110876 196.3819715224313 86.52035665842902 188.77940534159862 91.60475300439782 C 186.31848946425032 93.25054883134655 183.34377336873996 93.94363003747674 180.42515982951636 94.15153848616805 C 177.68235756458975 94.34692295770023 175.27342329604284 94.04884430597559 172.67686537608336 93.10424828283877 C 162.28525856421615 89.32390878297974 158.61506935288588 76.32227660936391 164.9114049459206 67.29051157388372 C 167.79143304822003 63.159261463215145 172.29748692820056 60.802251769627006 177.21541181465983 60.075819672131146 Z  M 177.77201463228278 66.56683388319672 C 180.70310800346078 66.50805268211457 183.90930499645367 67.00357957572388 186.14013878536397 69.06496869527945 C 192.94821267015874 75.35593017390926 188.95019689028732 87.1351069323953 179.6364668298529 87.69498997420949 C 178.0290116118416 87.79162010104267 176.63880716260553 87.57243351888084 175.12526484753784 86.99368100400721 C 168.73126954255258 84.54872731754526 166.40756820642167 76.35192186240486 170.43191087781912 70.79422500578227 C 172.15949624658074 68.4083954287556 174.91416553157788 67.02378544304324 177.77201463228278 66.56683388319672 Z  M 251.3957396835123 60.075819672131146 C 255.56941970056798 59.88765654321827 260.28476860810565 60.55174505683397 263.1718667326926 63.87756147540984 L 264.1918462408894 65.45389344262296 L 264.47002247039757 62.57940573770492 C 264.37633683558863 62.0693395037451 264.32105878905674 61.389533689831396 264.74819869990574 61.00307377049181 L 270.96080115892215 61.09579918032787 L 270.8680757490861 93.45696721311477 L 264.2845716507254 93.3642418032787 L 264.1918462408894 89.37704918032787 L 262.1518872244959 91.60245901639345 C 254.8083132367094 97.8775928099704 241.8764695059271 93.13168362278151 237.8922959110796 85.20471170276059 C 232.4400702477564 74.35688122904057 239.97419536142723 61.877395441746216 251.3957396835123 60.075819672131146 Z  M 252.32324414047952 66.56683388319672 C 256.2728739480251 66.50979699411687 260.1025980539047 67.6256947925419 262.50910384900436 70.92727284270468 C 267.52677940729563 77.81121532886694 262.3323776000825 86.91357564001376 254.47305965415694 87.63263300343154 C 252.70252880770673 87.79462075492035 251.1704932053832 87.62266588151962 249.49057959163275 87.00573562466644 C 242.94781811616758 84.60297664673061 240.8262435818607 76.18019883520364 244.9095221716005 70.65106273398985 C 246.67490159610148 68.26057604692637 249.43542049162508 66.96839515981259 252.32324414047952 66.56683388319672 Z " fill-rule="evenodd" fill="rgb(44,62,80)" fill-opacity="0.9" stroke-width="1" stroke="rgba(0,0,0,0)"/></g></svg>