<?xml version="1.0" standalone="no"?><!-- Generator: Gravit.io --><svg xmlns="http://www.w3.org/2000/svg" xmlns:xlink="http://www.w3.org/1999/xlink" style="isolation:isolate" viewBox="3.9999999999970903 0.9999999999962723 39.83716857408983 46.00000000000746"><g style="isolation:isolate"><path d="M 29.618655285691585 4.608437732590609 L 29.618655285691585 4.608437732590609 L 23.499999999999762 1 L 13.750000000005347 6.750000000002501 L 12.000689557797926 7.7816446197585565 L 20.506013430070475 6.249733801797805 L 29.618655285691585 4.608437732590609 Z M 31.702509148489238 5.837377190135554 L 31.702509148489238 5.837377190135554 L 33.24999999999792 6.749999999999218 L 42.99999999999608 12.499999999998437 L 43 19.590215100653403 L 37.11320285303874 12.424007308291648 L 31.702509148489238 5.837377190135554 Z M 42.99999999999523 22.29377619016495 L 42.99999999999523 22.29377619016495 L 42.999999999999815 24.000000000000142 L 42.99999999999435 35.49999999999844 L 37.04242365614986 39.01344245918569 L 40.182087417706605 30.202119320305965 L 42.99999999999523 22.29377619016495 Z M 34.79749085150294 40.337377190134994 L 34.79749085150294 40.337377190134994 L 33.24999999999992 41.250000000000924 L 23.499999999996312 47 L 17.488730675538903 43.454892449671824 L 26.643782559424587 41.805957825833275 L 34.79749085150294 40.337377190134994 Z M 15.499310442204177 42.28164461975971 L 15.499310442204177 42.28164461975971 L 13.749999999998156 41.25000000000079 L 4 35.50000000000156 L 4.000000000003843 28.283124534824715 L 10.036593136456322 35.63168431933944 L 15.499310442204177 42.28164461975971 Z M 4.000000000005138 26.18231104941267 L 4.000000000005138 26.18231104941267 L 4.000000000005463 24.00000000000328 L 4.000000000001725 12.500000000001572 L 10.172348266315563 8.859897176279203 L 6.967708571788462 17.853572307325116 L 4.000000000005138 26.18231104941267 Z" style="stroke:none;fill:#C0392B;stroke-miterlimit:10;"/><path d="M 33.5290268444929 11.621894923560202 L 33.5290268444929 11.621894923560202 L 30.9240704097593 8 L 22.174070409759768 8.74528434595882 L 18.56339617314732 9.052824801602839 L 25.94189018130962 10.319451575820988 L 33.5290268444929 11.621894923560202 Z M 34.020933037148836 12.305834400730143 L 34.020933037148836 12.305834400730143 L 35.96203520488257 15.004715654048802 L 41 22.00943130809283 L 39.11780094180989 25.939093042398245 L 36.504083994536586 18.94784276383327 L 34.020933037148836 12.305834400730143 Z M 38.66742432295358 26.87939091228886 L 38.66742432295358 26.87939091228886 L 37.287964795122804 29.75943130808998 L 33.575929590240705 37.50943130809283 L 29.18301768752506 37.88359913372108 L 34.10982903412563 32.16730500909047 L 38.66742432295358 26.87939091228886 Z M 28.197260010035155 37.96756139268528 L 28.197260010035155 37.96756139268528 L 24.825929590246083 38.25471565404596 L 16.075929590240698 39 L 13.521413787127655 35.44823702381903 L 21.153380260499404 36.75837606634495 L 28.197260010035155 37.96756139268528 Z M 13.11687333120387 34.88576964274477 L 13.11687333120387 34.88576964274477 L 11.037964795123274 31.995284345955973 L 6 24.990568691907164 L 7.919364343771943 20.983313145233076 L 10.591186447272435 28.129984878332657 L 13.11687333120387 34.88576964274477 Z M 8.129500780114917 20.544589563216263 L 8.129500780114917 20.544589563216263 L 9.712035204877195 17.240568691910013 L 13.424070409759299 9.490568691907164 L 17.99219414686311 9.101477136296156 L 12.9854414076834 14.91052263307546 L 8.129500780114917 20.544589563216263 Z" style="stroke:none;fill:#C0392B;stroke-miterlimit:10;fill-rule:evenodd;"/><path d="M 34.5626720729321 19.134265310914095 L 34.5626720729321 19.134265310914095 L 33.90545007424916 14.898273190048624 L 27.6554500742501 12.449136595027115 L 26.534097226684544 12.00972118783776 L 30.41000607761236 15.44919633184634 L 34.5626720729321 19.134265310914095 Z M 34.7865046859383 20.576933369773357 L 34.7865046859383 20.576933369773357 L 34.95272503712458 21.648273190048616 L 36 28.398273190048627 L 32.79230959802111 31.049929421338813 L 33.83142723115944 25.592752771513226 L 34.7865046859383 20.576933369773357 Z M 31.569189165863083 32.061029156379824 L 31.569189165863083 32.061029156379824 L 30.79727496287636 32.69913659502712 L 25.59454992575084 37 L 21.775590730980113 35.50349556498703 L 26.936851674451976 33.68930361683916 L 31.569189165863083 32.061029156379824 Z M 20.336531240820168 34.939583043426055 L 20.336531240820168 34.939583043426055 L 19.344549925751785 34.5508634049785 L 13.094549925750837 32.10172680995138 L 12.448862555640499 27.940078816092864 L 16.620854964201225 31.642298022509454 L 20.336531240820168 34.939583043426055 Z M 12.235173324766226 26.562787885323644 L 12.235173324766226 26.562787885323644 L 12.047274962875417 25.35172680995138 L 11 18.60172680995138 L 14.264992928043469 15.902701106783718 L 13.199433810654146 21.498741582842566 L 12.235173324766226 26.562787885323644 Z M 15.215423790555393 15.11702181634181 L 15.215423790555393 15.11702181634181 L 16.202725037125525 14.300863404978493 L 21.40545007424916 10.000000000000002 L 25.362083578295973 11.550453745258775 L 20.09400936736161 13.402190737516626 L 15.215423790555393 15.11702181634181 Z" style="stroke:none;fill:#C0392B;stroke-miterlimit:10;fill-rule:evenodd;"/></g></svg>