<?xml version="1.0" standalone="no"?><!-- Generator: Gravit.io --><svg xmlns="http://www.w3.org/2000/svg" xmlns:xlink="http://www.w3.org/1999/xlink" style="isolation:isolate" viewBox="0 0 192 192"><g style="isolation:isolate"><rect rx="8" ry="8" x="0" y="0" width="192" height="192" transform="matrix(1,0,0,1,0,0)" fill="rgb(255,255,255)" stroke-width="0" stroke="rgb(0,0,0)"/><g style="isolation:isolate"><defs><filter id="0NYdQ839LTwk86ldllStgz8KRiCiOaS9" x="-200%" y="-200%" width="400%" height="400%"><feOffset xmlns="http://www.w3.org/2000/svg" in="SourceAlpha" result="offOut" dx="1" dy="1"/><feGaussianBlur xmlns="http://www.w3.org/2000/svg" in="offOut" result="blurOut" stdDeviation="0.5"/><feComponentTransfer xmlns="http://www.w3.org/2000/svg" in="blurOut" result="opacOut"><feFuncA xmlns="http://www.w3.org/2000/svg" type="table" tableValues="0 0.5"/></feComponentTransfer><feBlend xmlns="http://www.w3.org/2000/svg" in="SourceGraphic" in2="opacOut" mode="normal"/></filter></defs><g filter="url(#0NYdQ839LTwk86ldllStgz8KRiCiOaS9)"><path d=" M 52.87540176195 30.89799840143 L 52.87540176195 30.89799840143 L 57.028856829700004 28.5 L 96 6 L 111.78469848313 15.11329991831 L 76.83569928241 24.47785603042 L 52.87540176195 30.89799840143 Z  M 33.84241214253001 41.88670008169 L 33.84241214253001 41.88670008169 L 18.057713659400008 51 L 18.057713659400008 96 L 18.057713659400008 100.79599680287 L 24.477856030420014 76.83569928241 L 33.84241214253001 41.88670008169 Z  M 18.057713659400008 122.77340016338 L 18.057713659400008 122.77340016338 L 18.057713659400008 141 L 57.028856829700004 163.5 L 61.182311897450006 165.89799840143 L 43.642156748009995 148.35784325199 L 18.057713659400008 122.77340016338 Z  M 80.21530151687 176.88670008169 L 80.21530151687 176.88670008169 L 96 186 L 134.9711431703 163.5 L 139.12459823805 161.10200159857 L 115.16430071759 167.52214396958 L 80.21530151687 176.88670008169 Z  M 158.15758785747 150.11329991831 L 158.15758785747 150.11329991831 L 173.9422863406 141 L 173.9422863406 96 L 173.9422863406 91.20400319713 L 167.52214396958 115.16430071759 L 158.15758785747 150.11329991831 Z  M 173.9422863406 69.22659983662 L 173.9422863406 69.22659983662 L 173.9422863406 51 L 134.9711431703 28.5 L 130.81768810255 26.10200159857 L 148.35784325199 43.64215674801 L 173.9422863406 69.22659983662 Z " fill-rule="evenodd" fill="rgb(192,57,43)" stroke-width="0" stroke="rgb(192,57,43)"/></g><defs><filter id="Wk7Yhfw9DL0Wi7A1qGfCZhdgr37Ogv8L" x="-200%" y="-200%" width="400%" height="400%"><feOffset xmlns="http://www.w3.org/2000/svg" in="SourceAlpha" result="offOut" dx="1" dy="1"/><feGaussianBlur xmlns="http://www.w3.org/2000/svg" in="offOut" result="blurOut" stdDeviation="0.5"/><feComponentTransfer xmlns="http://www.w3.org/2000/svg" in="blurOut" result="opacOut"><feFuncA xmlns="http://www.w3.org/2000/svg" type="table" tableValues="0 0.5"/></feComponentTransfer><feBlend xmlns="http://www.w3.org/2000/svg" in="SourceGraphic" in2="opacOut" mode="normal"/></filter></defs><g filter="url(#Wk7Yhfw9DL0Wi7A1qGfCZhdgr37Ogv8L)"><path d=" M 78.23497983535512 36.10738715698605 L 78.23497983535512 36.10738715698605 L 81.9734404077684 35.24429552704052 L 117.05076274003706 27.14605757066144 L 126.99517169851215 37.810130577417056 L 98.06731138949921 36.799947435677396 L 78.23497983535512 36.10738715698605 Z  M 61.103680686400224 40.062459203139376 L 61.103680686400224 40.062459203139376 L 46.89611807549974 43.3425334834196 L 36.37073670548122 77.76950469808888 L 35.24896569660129 81.43865233982335 L 45.764906268670956 64.60962953700141 L 61.103680686400224 40.062459203139376 Z  M 30.108508987888086 98.25232862572233 L 30.108508987888086 98.25232862572233 L 25.8453553354627 112.19647591275816 L 50.39729629771281 138.52520917104835 L 53.01398586124853 141.33126518282967 L 43.69759487917176 123.80968210132401 L 30.108508987888086 98.25232862572233 Z  M 65.00482830148788 154.18986942258294 L 65.00482830148788 154.18986942258294 L 74.94923725996297 164.85394242933856 L 110.02655959223165 156.7557044729595 L 113.76502016464491 155.89261284301398 L 93.93268861050083 155.20005256432256 L 65.00482830148788 154.18986942258294 Z  M 130.89631931359983 151.93754079686062 L 130.89631931359983 151.93754079686062 L 145.1038819245003 148.6574665165804 L 155.62926329451884 114.23049530191112 L 156.75103430339874 110.56134766017665 L 146.23509373132907 127.39037046299859 L 130.89631931359983 151.93754079686062 Z  M 161.89149101211197 93.74767137427767 L 161.89149101211197 93.74767137427767 L 166.15464466453736 79.80352408724184 L 141.60270370228722 53.47479082895164 L 138.98601413875153 50.668734817170346 L 148.30240512082827 68.190317898676 L 161.89149101211197 93.74767137427767 Z " fill-rule="evenodd" fill="rgb(192,57,43)" stroke-width="0" stroke="rgb(192,57,43)"/></g><defs><filter id="zQ3Odi5e0g2xPIfkA0tqpdHpWdH6MYsO" x="-200%" y="-200%" width="400%" height="400%"><feOffset xmlns="http://www.w3.org/2000/svg" in="SourceAlpha" result="offOut" dx="1" dy="1"/><feGaussianBlur xmlns="http://www.w3.org/2000/svg" in="offOut" result="blurOut" stdDeviation="0.5"/><feComponentTransfer xmlns="http://www.w3.org/2000/svg" in="blurOut" result="opacOut"><feFuncA xmlns="http://www.w3.org/2000/svg" type="table" tableValues="0 0.5"/></feComponentTransfer><feBlend xmlns="http://www.w3.org/2000/svg" in="SourceGraphic" in2="opacOut" mode="normal"/></filter></defs><g filter="url(#zQ3Odi5e0g2xPIfkA0tqpdHpWdH6MYsO)"><path d=" M 92.66 45.26 L 99.51 45.74 L 128.53 47.77 L 134.3 59.6 L 111.27 51.67 L 92.66 45.26 Z " fill="rgb(192,57,43)" stroke-width="0" stroke="rgb(192,57,43)"/></g><defs><filter id="ssOhR5bDCO1Rfv5xPfgU9Z6adaIHEyKn" x="-200%" y="-200%" width="400%" height="400%"><feOffset xmlns="http://www.w3.org/2000/svg" in="SourceAlpha" result="offOut" dx="1" dy="1"/><feGaussianBlur xmlns="http://www.w3.org/2000/svg" in="offOut" result="blurOut" stdDeviation="0.5"/><feComponentTransfer xmlns="http://www.w3.org/2000/svg" in="blurOut" result="opacOut"><feFuncA xmlns="http://www.w3.org/2000/svg" type="table" tableValues="0 0.5"/></feComponentTransfer><feBlend xmlns="http://www.w3.org/2000/svg" in="SourceGraphic" in2="opacOut" mode="normal"/></filter></defs><g filter="url(#ssOhR5bDCO1Rfv5xPfgU9Z6adaIHEyKn)"><path d=" M 83.63 44.63 L 70.5 43.71 L 54.23 67.83 L 50.39 73.52 L 65.24 60.61 L 83.63 44.63 Z " fill="rgb(192,57,43)" stroke="none"/><mask id="_mask_qn55nAHwsl2UelhUJF7RFJwwTOcjv6Mh"><path d=" M 83.63 44.63 L 70.5 43.71 L 54.23 67.83 L 50.39 73.52 L 65.24 60.61 L 83.63 44.63 Z " fill="white" stroke="none"/></mask><path d=" M 83.63 44.63 L 70.5 43.71 L 54.23 67.83 L 50.39 73.52 L 65.24 60.61 L 83.63 44.63 Z " fill="none" stroke="none" stroke-width="0" mask="url(#_mask_qn55nAHwsl2UelhUJF7RFJwwTOcjv6Mh)"/></g><defs><filter id="wS1yTth5sNVi587btVCJvLeNI7TY0Aar" x="-200%" y="-200%" width="400%" height="400%"><feOffset xmlns="http://www.w3.org/2000/svg" in="SourceAlpha" result="offOut" dx="1" dy="1"/><feGaussianBlur xmlns="http://www.w3.org/2000/svg" in="offOut" result="blurOut" stdDeviation="0.5"/><feComponentTransfer xmlns="http://www.w3.org/2000/svg" in="blurOut" result="opacOut"><feFuncA xmlns="http://www.w3.org/2000/svg" type="table" tableValues="0 0.5"/></feComponentTransfer><feBlend xmlns="http://www.w3.org/2000/svg" in="SourceGraphic" in2="opacOut" mode="normal"/></filter></defs><g filter="url(#wS1yTth5sNVi587btVCJvLeNI7TY0Aar)"><path d=" M 45.32 81.03 L 37.96 91.94 L 50.72 118.09 L 53.73 124.26 L 49.97 104.95 L 45.32 81.03 Z " fill="rgb(192,57,43)" stroke="none"/><mask id="_mask_pxbDyqf1WoAnwnRE5Qt5DYj4PCvu9e3V"><path d=" M 45.32 81.03 L 37.96 91.94 L 50.72 118.09 L 53.73 124.26 L 49.97 104.95 L 45.32 81.03 Z " fill="white" stroke="none"/></mask><path d=" M 45.32 81.03 L 37.96 91.94 L 50.72 118.09 L 53.73 124.26 L 49.97 104.95 L 45.32 81.03 Z " fill="none" stroke="none" stroke-width="0" mask="url(#_mask_pxbDyqf1WoAnwnRE5Qt5DYj4PCvu9e3V)"/></g><defs><filter id="O40HgAEqU4Rv0dk4WK4e70IjmKiDFJam" x="-200%" y="-200%" width="400%" height="400%"><feOffset xmlns="http://www.w3.org/2000/svg" in="SourceAlpha" result="offOut" dx="1" dy="1"/><feGaussianBlur xmlns="http://www.w3.org/2000/svg" in="offOut" result="blurOut" stdDeviation="0.5"/><feComponentTransfer xmlns="http://www.w3.org/2000/svg" in="blurOut" result="opacOut"><feFuncA xmlns="http://www.w3.org/2000/svg" type="table" tableValues="0 0.5"/></feComponentTransfer><feBlend xmlns="http://www.w3.org/2000/svg" in="SourceGraphic" in2="opacOut" mode="normal"/></filter></defs><g filter="url(#O40HgAEqU4Rv0dk4WK4e70IjmKiDFJam)"><path d=" M 57.7 132.4 L 63.47 144.23 L 92.49 146.26 L 99.34 146.74 L 80.73 140.33 L 57.7 132.4 Z " fill="rgb(192,57,43)" stroke="none"/><mask id="_mask_CAFyjnQVQSOEFSo1xSPKwXn2ty273Klc"><path d=" M 57.7 132.4 L 63.47 144.23 L 92.49 146.26 L 99.34 146.74 L 80.73 140.33 L 57.7 132.4 Z " fill="white" stroke="none"/></mask><path d=" M 57.7 132.4 L 63.47 144.23 L 92.49 146.26 L 99.34 146.74 L 80.73 140.33 L 57.7 132.4 Z " fill="none" stroke="none" stroke-width="0" mask="url(#_mask_CAFyjnQVQSOEFSo1xSPKwXn2ty273Klc)"/></g><defs><filter id="O6EgbEgLBVEB3LsOhWGlIhEriBR8sCPF" x="-200%" y="-200%" width="400%" height="400%"><feOffset xmlns="http://www.w3.org/2000/svg" in="SourceAlpha" result="offOut" dx="1" dy="1"/><feGaussianBlur xmlns="http://www.w3.org/2000/svg" in="offOut" result="blurOut" stdDeviation="0.5"/><feComponentTransfer xmlns="http://www.w3.org/2000/svg" in="blurOut" result="opacOut"><feFuncA xmlns="http://www.w3.org/2000/svg" type="table" tableValues="0 0.5"/></feComponentTransfer><feBlend xmlns="http://www.w3.org/2000/svg" in="SourceGraphic" in2="opacOut" mode="normal"/></filter></defs><g filter="url(#O6EgbEgLBVEB3LsOhWGlIhEriBR8sCPF)"><path d=" M 108.37 147.37 L 121.5 148.29 L 137.77 124.17 L 141.61 118.48 L 126.76 131.39 L 108.37 147.37 Z " fill="rgb(192,57,43)" stroke="none"/><mask id="_mask_ASkW4uC3b2pc668sLrwl5FzXNADSTCox"><path d=" M 108.37 147.37 L 121.5 148.29 L 137.77 124.17 L 141.61 118.48 L 126.76 131.39 L 108.37 147.37 Z " fill="white" stroke="none"/></mask><path d=" M 108.37 147.37 L 121.5 148.29 L 137.77 124.17 L 141.61 118.48 L 126.76 131.39 L 108.37 147.37 Z " fill="none" stroke="none" stroke-width="0" mask="url(#_mask_ASkW4uC3b2pc668sLrwl5FzXNADSTCox)"/></g><defs><filter id="dSvHDYg0JoiIs32cluSBsxCIPi7cFF5z" x="-200%" y="-200%" width="400%" height="400%"><feOffset xmlns="http://www.w3.org/2000/svg" in="SourceAlpha" result="offOut" dx="1" dy="1"/><feGaussianBlur xmlns="http://www.w3.org/2000/svg" in="offOut" result="blurOut" stdDeviation="0.5"/><feComponentTransfer xmlns="http://www.w3.org/2000/svg" in="blurOut" result="opacOut"><feFuncA xmlns="http://www.w3.org/2000/svg" type="table" tableValues="0 0.5"/></feComponentTransfer><feBlend xmlns="http://www.w3.org/2000/svg" in="SourceGraphic" in2="opacOut" mode="normal"/></filter></defs><g filter="url(#dSvHDYg0JoiIs32cluSBsxCIPi7cFF5z)"><path d=" M 146.68 110.97 L 154.04 100.06 L 141.28 73.91 L 138.27 67.74 L 142.03 87.05 L 146.68 110.97 Z " fill="rgb(192,57,43)" stroke="none"/><mask id="_mask_y1vaK93Y9HfHjXpKssIs2Ec0caMeeD6k"><path d=" M 146.68 110.97 L 154.04 100.06 L 141.28 73.91 L 138.27 67.74 L 142.03 87.05 L 146.68 110.97 Z " fill="white" stroke="none"/></mask><path d=" M 146.68 110.97 L 154.04 100.06 L 141.28 73.91 L 138.27 67.74 L 142.03 87.05 L 146.68 110.97 Z " fill="none" stroke="none" stroke-width="0" mask="url(#_mask_y1vaK93Y9HfHjXpKssIs2Ec0caMeeD6k)"/></g></g><g style="isolation:isolate"><rect x="0" y="0" width="191.99999999999994" height="191.99999999999994" transform="matrix(1,0,0,1,0,0)" fill="none" stroke="none"/><mask id="_mask_ZAgtCE2dw1F0dZAAjlzNeueaWyAxzDVh"><rect x="0" y="0" width="191.99999999999994" height="191.99999999999994" transform="matrix(1,0,0,1,0,0)" fill="white" stroke="none"/></mask><rect x="0" y="0" width="191.99999999999994" height="191.99999999999994" transform="matrix(1,0,0,1,0,0)" fill="none" stroke="none" stroke-width="0" mask="url(#_mask_ZAgtCE2dw1F0dZAAjlzNeueaWyAxzDVh)"/></g></g></svg>